<svg width="50" height="50" viewBox="0 0 50 50" fill="none" xmlns="http://www.w3.org/2000/svg">
<g clip-path="url(#clip0_1_5)">
<path d="M12.8032 1.80625C14.6297 4.325 16.8079 7.57813 19.3266 11.5516C19.961 12.6266 19.8641 13.9141 19.0438 15.4281C18.7313 16.0625 17.9407 17.5078 16.6813 19.7828C18.0672 21.7359 20.1782 24.1375 23.0188 26.9703C25.8594 29.8031 28.2235 31.9219 30.1094 33.3078C32.375 31.9797 33.8297 31.1688 34.4657 30.8469C35.286 30.4078 36.0766 30.1828 36.8282 30.1828C37.3954 30.1828 37.9032 30.3094 38.3422 30.5641C41.2422 32.3313 44.5235 34.5094 48.1766 37.0875C48.8704 37.5953 49.261 38.2891 49.3579 39.1672C49.4563 40.0562 49.1813 40.9937 48.5579 42.0094C48.2454 42.4484 47.7375 43.0937 47.0438 43.9531C46.35 44.8031 45.3047 45.8766 43.9188 47.1656C42.5329 48.4547 41.3985 49.1094 40.511 49.1094H40.4125C33.7422 48.8453 25.5204 43.8453 15.7844 34.1094C6.03911 24.3625 1.03755 16.15 0.784424 9.47031C0.784424 8.59063 1.42817 7.43906 2.72817 6.01406C4.01724 4.59844 5.0813 3.57188 5.89224 2.9375C6.71255 2.3125 7.4063 1.80469 7.97192 1.42344C8.66567 0.915625 9.4563 0.671875 10.336 0.671875C11.4204 0.671875 12.2297 1.05312 12.8063 1.80469L12.8032 1.80625ZM9.67817 3.78906C8.35005 4.73594 7.10942 5.8 5.93755 6.9625C4.77505 8.13438 4.09224 8.99375 3.9063 9.55938C4.16099 15.4281 8.83755 22.8984 17.95 31.9813C27.0625 41.0641 34.5516 45.7609 40.411 46.0734C40.9188 45.8875 41.7485 45.1937 42.9204 43.9937C44.0922 42.7937 45.1469 41.5328 46.0844 40.2141C46.2704 39.9594 46.3391 39.7453 46.2704 39.55C42.4907 36.9031 39.336 34.7938 36.8079 33.2125C36.5532 33.2125 36.2407 33.3109 35.861 33.4953C35.2938 33.8078 33.8782 34.5984 31.6032 35.8578L29.9922 36.8047L28.3813 35.7594C26.3016 34.3141 23.7813 32.0672 20.8125 29.0406C17.8532 26.0813 15.6469 23.5531 14.1907 21.4719L13.0579 19.9578L14.0047 18.2578C15.2641 15.9922 16.0563 14.5656 16.3672 14C16.5532 13.6187 16.65 13.3063 16.65 13.0531C14.4032 9.46875 12.3235 6.31406 10.4297 3.6H10.3313C10.0875 3.6 9.86255 3.66875 9.67661 3.78594L9.67817 3.78906Z" fill="white"/>
</g>
<defs>
<clipPath id="clip0_1_5">
<rect width="50" height="50" fill="white"/>
</clipPath>
</defs>
</svg>
