<svg width="50" height="50" viewBox="0 0 50 50" fill="none" xmlns="http://www.w3.org/2000/svg">
<path d="M43.1398 9.80648C43.9533 8.99287 43.9533 7.67379 43.1398 6.86019C42.3262 6.0466 41.0071 6.0466 40.1935 6.86019L6.86019 40.1935C6.0466 41.0071 6.0466 42.3262 6.86019 43.1398C7.67379 43.9533 8.99287 43.9533 9.80648 43.1398L43.1398 9.80648Z" fill="white"/>
<path d="M27.0833 10.4166C28.9443 10.4166 30.6627 11.0266 32.0497 12.0576L29.0381 15.0693C28.4552 14.7591 27.7898 14.5833 27.0833 14.5833H12.5C10.1988 14.5833 8.33329 16.4488 8.33329 18.75V31.25C8.33329 32.4914 8.87631 33.6062 9.73779 34.3695L6.78881 37.3185C5.17452 35.7987 4.16663 33.642 4.16663 31.25V18.75C4.16663 14.1476 7.89758 10.4166 12.5 10.4166H27.0833Z" fill="white"/>
<path fill-rule="evenodd" clip-rule="evenodd" d="M27.0833 35.4166H20.4759L16.3092 39.5833H27.0833C31.4454 39.5833 35.0246 36.2318 35.3864 31.9635L42.3041 35.0883C43.9589 35.8358 45.8333 34.6256 45.8333 32.8099V17.2321C45.8333 15.3097 43.7539 14.1066 42.0875 15.0647L39.1248 16.7678L31.25 24.6424V31.2499C31.25 33.5512 29.3846 35.4166 27.0833 35.4166ZM35.4166 27.4049L41.6666 30.2283V20.1126L35.4166 23.7054V27.4049Z" fill="white"/>
</svg>
