<svg width="42" height="30" viewBox="0 0 42 30" fill="none" xmlns="http://www.w3.org/2000/svg">
<path fill-rule="evenodd" clip-rule="evenodd" d="M0 8.33333C0 3.73096 3.73096 0 8.33333 0H22.9167C27.519 0 31.25 3.73096 31.25 8.33333V8.48273L37.9208 4.64808C39.5873 3.69002 41.6667 4.89308 41.6667 6.8155V22.3933C41.6667 24.209 39.7923 25.4192 38.1375 24.6717L31.2198 21.5469C30.8579 25.8152 27.2787 29.1667 22.9167 29.1667H8.33333C3.73096 29.1667 0 25.4356 0 20.8333V8.33333ZM31.25 16.9883L37.5 19.8117V9.69598L31.25 13.2887V16.9883ZM27.0833 8.33333C27.0833 6.03215 25.2179 4.16667 22.9167 4.16667H8.33333C6.03215 4.16667 4.16667 6.03215 4.16667 8.33333V20.8333C4.16667 23.1346 6.03215 25 8.33333 25H22.9167C25.2179 25 27.0833 23.1346 27.0833 20.8333V8.33333Z" fill="white"/>
</svg>
