<svg width="50" height="50" viewBox="0 0 50 50" fill="none" xmlns="http://www.w3.org/2000/svg">
<path d="M25 2.08337C28.4275 2.08337 31.3719 4.15281 32.6517 7.11042L16.6666 23.0955V10.4167C16.6666 5.81433 20.3976 2.08337 25 2.08337Z" fill="white"/>
<path d="M13.0207 25.0001C13.0207 25.5484 13.0583 26.0928 13.1321 26.6299L8.85815 30.9038C8.17275 29.0301 7.81238 27.0336 7.81238 25.0001V24.6746C7.81238 23.524 8.74513 22.5913 9.89571 22.5913H10.9374C12.088 22.5913 13.0207 23.524 13.0207 24.6746V25.0001Z" fill="white"/>
<path d="M15.2588 39.1606L7.84944 46.5697C7.03584 47.3835 5.71676 47.3835 4.90317 46.5697L3.43003 45.0966C2.61642 44.2831 2.61642 42.9639 3.43003 42.1504L42.1504 3.43003C42.964 2.61642 44.2831 2.61642 45.0967 3.43003L46.5698 4.90315C47.3833 5.71676 47.3833 7.03584 46.5698 7.84944L33.3333 21.086V24.9999C33.3333 29.6022 29.6023 33.3333 25 33.3333C23.8452 33.3333 22.7452 33.0985 21.7454 32.6739L19.0324 35.3868C20.8327 36.4212 22.8875 36.9791 25 36.9791C28.1771 36.9791 31.224 35.717 33.4704 33.4706C35.7171 31.2239 36.9792 28.177 36.9792 24.9999V24.6745C36.9792 23.5239 37.9119 22.5912 39.0625 22.5912H40.1042C41.2548 22.5912 42.1875 23.5239 42.1875 24.6743V24.9999C42.1875 29.5583 40.3767 33.9301 37.1533 37.1533C34.5504 39.7564 31.1985 41.4381 27.6042 41.9891V47.9166H22.3958V41.9891C19.8322 41.5962 17.3919 40.6279 15.2588 39.1606Z" fill="white"/>
<path d="M15.2588 39.1606L7.84944 46.5697C7.03584 47.3835 5.71676 47.3835 4.90317 46.5697L3.43003 45.0966C2.61642 44.2831 2.61642 42.9639 3.43003 42.1504L42.1504 3.43003C42.964 2.61642 44.2831 2.61642 45.0967 3.43003L46.5698 4.90315C47.3833 5.71676 47.3833 7.03584 46.5698 7.84944L33.3333 21.086V24.9999C33.3333 29.6022 29.6023 33.3333 25 33.3333C23.8452 33.3333 22.7452 33.0985 21.7454 32.6739L19.0324 35.3868C20.8327 36.4212 22.8875 36.9791 25 36.9791C28.1771 36.9791 31.224 35.717 33.4704 33.4706C35.7171 31.2239 36.9792 28.177 36.9792 24.9999V24.6745C36.9792 23.5239 37.9119 22.5912 39.0625 22.5912H40.1042C41.2548 22.5912 42.1875 23.5239 42.1875 24.6743V24.9999C42.1875 29.5583 40.3767 33.9301 37.1533 37.1533C34.5504 39.7564 31.1985 41.4381 27.6042 41.9891V47.9166H22.3958V41.9891C19.8322 41.5962 17.3919 40.6279 15.2588 39.1606Z" fill="white"/>
</svg>
